<mxfile host="app.diagrams.net" modified="2021-02-13T07:46:32.900Z" agent="5.0 (Macintosh; Intel Mac OS X 10_15_6) AppleWebKit/537.36 (KHTML, like Gecko) Chrome/88.0.4324.150 Safari/537.36" etag="pfxUddJrcXtUYAXYrSuu" version="14.3.1" type="github" pages="2">
  <diagram id="1mM0I8qwoy_f8kRRgzRM" name="Page-1">
    <mxGraphModel dx="2757" dy="2137" grid="1" gridSize="10" guides="1" tooltips="1" connect="1" arrows="1" fold="1" page="1" pageScale="1" pageWidth="850" pageHeight="1100" math="0" shadow="0">
      <root>
        <mxCell id="0" />
        <mxCell id="1" parent="0" />
        <mxCell id="4BLV-VYYYMDppgR64cWv-48" style="edgeStyle=orthogonalEdgeStyle;rounded=0;orthogonalLoop=1;jettySize=auto;html=1;shadow=0;entryX=0;entryY=0.5;entryDx=0;entryDy=0;entryPerimeter=0;" edge="1" parent="1" source="dt_SSPU3Z-cIWrvToQTy-3" target="4BLV-VYYYMDppgR64cWv-34">
          <mxGeometry relative="1" as="geometry">
            <mxPoint x="490" y="150" as="targetPoint" />
          </mxGeometry>
        </mxCell>
        <mxCell id="4BLV-VYYYMDppgR64cWv-54" style="edgeStyle=orthogonalEdgeStyle;rounded=0;orthogonalLoop=1;jettySize=auto;html=1;shadow=0;entryX=0.25;entryY=1;entryDx=0;entryDy=0;" edge="1" parent="1" source="4BLV-VYYYMDppgR64cWv-13" target="4BLV-VYYYMDppgR64cWv-16">
          <mxGeometry relative="1" as="geometry">
            <mxPoint x="340" y="400" as="targetPoint" />
          </mxGeometry>
        </mxCell>
        <mxCell id="4BLV-VYYYMDppgR64cWv-62" style="edgeStyle=orthogonalEdgeStyle;rounded=0;orthogonalLoop=1;jettySize=auto;html=1;shadow=0;" edge="1" parent="1" source="4BLV-VYYYMDppgR64cWv-13" target="4BLV-VYYYMDppgR64cWv-21">
          <mxGeometry relative="1" as="geometry" />
        </mxCell>
        <mxCell id="4BLV-VYYYMDppgR64cWv-87" style="edgeStyle=orthogonalEdgeStyle;rounded=0;orthogonalLoop=1;jettySize=auto;html=1;entryX=0;entryY=0.75;entryDx=0;entryDy=0;shadow=0;" edge="1" parent="1" source="4BLV-VYYYMDppgR64cWv-13" target="dt_SSPU3Z-cIWrvToQTy-1">
          <mxGeometry relative="1" as="geometry">
            <Array as="points">
              <mxPoint x="-170" y="510" />
              <mxPoint x="-170" y="-276" />
            </Array>
          </mxGeometry>
        </mxCell>
        <mxCell id="4BLV-VYYYMDppgR64cWv-93" style="edgeStyle=orthogonalEdgeStyle;rounded=0;orthogonalLoop=1;jettySize=auto;html=1;exitX=1;exitY=0;exitDx=0;exitDy=0;shadow=0;entryX=0.75;entryY=1;entryDx=0;entryDy=0;" edge="1" parent="1" source="4BLV-VYYYMDppgR64cWv-13" target="4BLV-VYYYMDppgR64cWv-22">
          <mxGeometry relative="1" as="geometry">
            <mxPoint x="970" y="360" as="targetPoint" />
            <Array as="points">
              <mxPoint x="130" y="450" />
              <mxPoint x="1025" y="450" />
            </Array>
          </mxGeometry>
        </mxCell>
        <mxCell id="4BLV-VYYYMDppgR64cWv-13" value="HOME TIMELINE SERVICE" style="rounded=1;whiteSpace=wrap;html=1;fillColor=#99FFFF;fontStyle=1" vertex="1" parent="1">
          <mxGeometry x="-10" y="476.8" width="150" height="60" as="geometry" />
        </mxCell>
        <mxCell id="4BLV-VYYYMDppgR64cWv-53" style="edgeStyle=orthogonalEdgeStyle;rounded=0;orthogonalLoop=1;jettySize=auto;html=1;entryX=0;entryY=0.5;entryDx=0;entryDy=0;shadow=0;" edge="1" parent="1" source="4BLV-VYYYMDppgR64cWv-14" target="4BLV-VYYYMDppgR64cWv-16">
          <mxGeometry relative="1" as="geometry">
            <Array as="points">
              <mxPoint x="215" y="320" />
              <mxPoint x="484" y="320" />
            </Array>
          </mxGeometry>
        </mxCell>
        <mxCell id="4BLV-VYYYMDppgR64cWv-61" style="edgeStyle=orthogonalEdgeStyle;rounded=0;orthogonalLoop=1;jettySize=auto;html=1;shadow=0;" edge="1" parent="1" source="4BLV-VYYYMDppgR64cWv-14" target="4BLV-VYYYMDppgR64cWv-60">
          <mxGeometry relative="1" as="geometry" />
        </mxCell>
        <mxCell id="4BLV-VYYYMDppgR64cWv-85" style="edgeStyle=orthogonalEdgeStyle;rounded=0;orthogonalLoop=1;jettySize=auto;html=1;shadow=0;entryX=0;entryY=0.5;entryDx=0;entryDy=0;" edge="1" parent="1" source="4BLV-VYYYMDppgR64cWv-14" target="dt_SSPU3Z-cIWrvToQTy-1">
          <mxGeometry relative="1" as="geometry">
            <mxPoint x="-150" y="-259.9999999999998" as="targetPoint" />
            <Array as="points">
              <mxPoint x="-130" y="390" />
              <mxPoint x="-130" y="-317" />
            </Array>
          </mxGeometry>
        </mxCell>
        <mxCell id="4BLV-VYYYMDppgR64cWv-86" style="edgeStyle=orthogonalEdgeStyle;rounded=0;orthogonalLoop=1;jettySize=auto;html=1;entryX=0;entryY=0.5;entryDx=0;entryDy=0;shadow=0;" edge="1" parent="1" source="4BLV-VYYYMDppgR64cWv-14" target="dt_SSPU3Z-cIWrvToQTy-2">
          <mxGeometry relative="1" as="geometry">
            <Array as="points">
              <mxPoint x="-110" y="380" />
              <mxPoint x="-110" y="-85" />
            </Array>
          </mxGeometry>
        </mxCell>
        <mxCell id="4BLV-VYYYMDppgR64cWv-92" style="edgeStyle=orthogonalEdgeStyle;rounded=0;orthogonalLoop=1;jettySize=auto;html=1;exitX=0.5;exitY=1;exitDx=0;exitDy=0;entryX=0.75;entryY=1;entryDx=0;entryDy=0;shadow=0;" edge="1" parent="1" source="4BLV-VYYYMDppgR64cWv-14" target="4BLV-VYYYMDppgR64cWv-22">
          <mxGeometry relative="1" as="geometry">
            <Array as="points">
              <mxPoint x="50" y="450" />
              <mxPoint x="1025" y="450" />
            </Array>
          </mxGeometry>
        </mxCell>
        <mxCell id="4BLV-VYYYMDppgR64cWv-14" value="USER TIMELINE SERVICE" style="rounded=1;whiteSpace=wrap;html=1;fillColor=#99FFFF;fontStyle=1" vertex="1" parent="1">
          <mxGeometry x="-40" y="340" width="180" height="80" as="geometry" />
        </mxCell>
        <mxCell id="4BLV-VYYYMDppgR64cWv-15" value="&lt;font style=&quot;font-size: 36px&quot;&gt;L&lt;br&gt;B&lt;/font&gt;" style="rounded=0;whiteSpace=wrap;html=1;shadow=1;fillColor=#FF9933;fontStyle=1" vertex="1" parent="1">
          <mxGeometry x="-280" y="-140" width="30" height="670" as="geometry" />
        </mxCell>
        <mxCell id="4BLV-VYYYMDppgR64cWv-55" style="edgeStyle=orthogonalEdgeStyle;rounded=0;orthogonalLoop=1;jettySize=auto;html=1;entryX=0.75;entryY=1;entryDx=0;entryDy=0;entryPerimeter=0;shadow=0;" edge="1" parent="1" source="4BLV-VYYYMDppgR64cWv-16" target="4BLV-VYYYMDppgR64cWv-34">
          <mxGeometry relative="1" as="geometry" />
        </mxCell>
        <mxCell id="4BLV-VYYYMDppgR64cWv-16" value="TWEET SERVICE" style="rounded=1;whiteSpace=wrap;html=1;fillColor=#99FFFF;fontStyle=1" vertex="1" parent="1">
          <mxGeometry x="430" y="270" width="120" height="60" as="geometry" />
        </mxCell>
        <mxCell id="4BLV-VYYYMDppgR64cWv-52" style="edgeStyle=orthogonalEdgeStyle;rounded=0;orthogonalLoop=1;jettySize=auto;html=1;shadow=0;" edge="1" parent="1" source="4BLV-VYYYMDppgR64cWv-17" target="4BLV-VYYYMDppgR64cWv-21">
          <mxGeometry relative="1" as="geometry" />
        </mxCell>
        <mxCell id="4BLV-VYYYMDppgR64cWv-63" style="edgeStyle=orthogonalEdgeStyle;rounded=0;orthogonalLoop=1;jettySize=auto;html=1;shadow=0;entryX=0.5;entryY=1;entryDx=0;entryDy=0;" edge="1" parent="1" source="4BLV-VYYYMDppgR64cWv-17" target="4BLV-VYYYMDppgR64cWv-22">
          <mxGeometry relative="1" as="geometry">
            <mxPoint x="980" y="160" as="targetPoint" />
          </mxGeometry>
        </mxCell>
        <mxCell id="4BLV-VYYYMDppgR64cWv-68" style="edgeStyle=orthogonalEdgeStyle;rounded=0;orthogonalLoop=1;jettySize=auto;html=1;exitX=0.25;exitY=0;exitDx=0;exitDy=0;entryX=1;entryY=0.5;entryDx=0;entryDy=0;shadow=0;" edge="1" parent="1" source="4BLV-VYYYMDppgR64cWv-17" target="dt_SSPU3Z-cIWrvToQTy-1">
          <mxGeometry relative="1" as="geometry">
            <Array as="points">
              <mxPoint x="800" y="-317" />
            </Array>
          </mxGeometry>
        </mxCell>
        <mxCell id="4BLV-VYYYMDppgR64cWv-83" style="edgeStyle=orthogonalEdgeStyle;rounded=0;orthogonalLoop=1;jettySize=auto;html=1;entryX=1;entryY=0.5;entryDx=0;entryDy=0;shadow=0;" edge="1" parent="1" source="4BLV-VYYYMDppgR64cWv-17" target="dt_SSPU3Z-cIWrvToQTy-2">
          <mxGeometry relative="1" as="geometry">
            <Array as="points">
              <mxPoint x="800" y="-85" />
            </Array>
          </mxGeometry>
        </mxCell>
        <mxCell id="4BLV-VYYYMDppgR64cWv-17" value="FANOUT SERVICE" style="rounded=1;whiteSpace=wrap;html=1;fillColor=#99FFFF;fontStyle=1" vertex="1" parent="1">
          <mxGeometry x="770" y="193.5" width="120" height="50" as="geometry" />
        </mxCell>
        <mxCell id="4BLV-VYYYMDppgR64cWv-21" value="" style="aspect=fixed;html=1;points=[];align=center;image;fontSize=12;image=img/lib/mscae/Cache_Redis_Product.svg;fillColor=#99FFFF;fontStyle=1" vertex="1" parent="1">
          <mxGeometry x="810" y="490" width="40" height="33.6" as="geometry" />
        </mxCell>
        <mxCell id="4BLV-VYYYMDppgR64cWv-22" value="&lt;font style=&quot;font-size: 18px&quot;&gt;K&lt;br&gt;A&lt;br&gt;F&lt;br&gt;K&lt;br&gt;A&lt;/font&gt;" style="rounded=0;whiteSpace=wrap;html=1;shadow=1;fillColor=#FF9933;fontStyle=1" vertex="1" parent="1">
          <mxGeometry x="980" y="-110" width="60" height="160" as="geometry" />
        </mxCell>
        <mxCell id="4BLV-VYYYMDppgR64cWv-32" value="" style="strokeColor=#dddddd;shadow=1;strokeWidth=1;rounded=1;absoluteArcSize=1;arcSize=2;fillColor=#FFFFCC;" vertex="1" parent="1">
          <mxGeometry x="140" y="630" width="90" height="60" as="geometry" />
        </mxCell>
        <mxCell id="4BLV-VYYYMDppgR64cWv-33" value="Cloud &#xa;CDN" style="dashed=0;connectable=0;html=1;fillColor=#5184F3;strokeColor=none;shape=mxgraph.gcp2.hexIcon;prIcon=cloud_cdn;part=1;labelPosition=right;verticalLabelPosition=middle;align=left;verticalAlign=middle;spacingLeft=5;fontColor=#999999;fontSize=12;" vertex="1" parent="4BLV-VYYYMDppgR64cWv-32">
          <mxGeometry y="0.5" width="44" height="39" relative="1" as="geometry">
            <mxPoint x="5" y="-19.5" as="offset" />
          </mxGeometry>
        </mxCell>
        <mxCell id="4BLV-VYYYMDppgR64cWv-34" value="" style="points=[[0,0,0],[0.25,0,0],[0.5,0,0],[0.75,0,0],[1,0,0],[0,1,0],[0.25,1,0],[0.5,1,0],[0.75,1,0],[1,1,0],[0,0.25,0],[0,0.5,0],[0,0.75,0],[1,0.25,0],[1,0.5,0],[1,0.75,0]];outlineConnect=0;fontColor=#232F3E;gradientColor=#4D72F3;gradientDirection=north;fillColor=#3334B9;strokeColor=#ffffff;dashed=0;verticalLabelPosition=bottom;verticalAlign=top;align=center;html=1;fontSize=12;fontStyle=0;aspect=fixed;shape=mxgraph.aws4.resourceIcon;resIcon=mxgraph.aws4.managed_apache_cassandra_service;shadow=1;" vertex="1" parent="1">
          <mxGeometry x="430" y="90" width="87" height="87" as="geometry" />
        </mxCell>
        <mxCell id="4BLV-VYYYMDppgR64cWv-60" value="" style="aspect=fixed;html=1;points=[];align=center;image;fontSize=12;image=img/lib/mscae/Cache_Redis_Product.svg;fillColor=#99FFFF;fontStyle=1" vertex="1" parent="1">
          <mxGeometry x="190" y="363.2" width="40" height="33.6" as="geometry" />
        </mxCell>
        <mxCell id="4BLV-VYYYMDppgR64cWv-73" value="" style="group" vertex="1" connectable="0" parent="1">
          <mxGeometry x="-110" y="-400" width="260" height="165" as="geometry" />
        </mxCell>
        <mxCell id="dt_SSPU3Z-cIWrvToQTy-1" value="&lt;font style=&quot;font-size: 14px&quot;&gt;USER SERVICE&lt;/font&gt;" style="rounded=1;whiteSpace=wrap;html=1;fillColor=#99FFFF;fontStyle=1" parent="4BLV-VYYYMDppgR64cWv-73" vertex="1">
          <mxGeometry width="260" height="165" as="geometry" />
        </mxCell>
        <mxCell id="4BLV-VYYYMDppgR64cWv-1" value="" style="aspect=fixed;html=1;points=[];align=center;image;fontSize=12;image=img/lib/mscae/Cache_Redis_Product.svg;fillColor=#99FFFF;fontStyle=1" vertex="1" parent="4BLV-VYYYMDppgR64cWv-73">
          <mxGeometry x="20" y="100" width="50" height="42" as="geometry" />
        </mxCell>
        <mxCell id="4BLV-VYYYMDppgR64cWv-5" value="" style="group;fontStyle=1" vertex="1" connectable="0" parent="4BLV-VYYYMDppgR64cWv-73">
          <mxGeometry x="120" y="11" width="120" height="60" as="geometry" />
        </mxCell>
        <mxCell id="dt_SSPU3Z-cIWrvToQTy-4" value="" style="rounded=1;whiteSpace=wrap;html=1;fillColor=#99FFFF;fontStyle=1" parent="4BLV-VYYYMDppgR64cWv-5" vertex="1">
          <mxGeometry width="120" height="60" as="geometry" />
        </mxCell>
        <mxCell id="4BLV-VYYYMDppgR64cWv-2" value="" style="outlineConnect=0;dashed=0;verticalLabelPosition=bottom;verticalAlign=top;align=center;html=1;shape=mxgraph.aws3.mysql_db_instance;fillColor=#2E73B8;gradientColor=none;fontStyle=1" vertex="1" parent="4BLV-VYYYMDppgR64cWv-5">
          <mxGeometry x="10" y="7.75" width="40" height="44.5" as="geometry" />
        </mxCell>
        <mxCell id="4BLV-VYYYMDppgR64cWv-3" value="" style="shape=image;html=1;verticalAlign=top;verticalLabelPosition=bottom;labelBackgroundColor=#ffffff;imageAspect=0;aspect=fixed;image=https://cdn3.iconfinder.com/data/icons/freeapplication/png/24x24/Database.png;fillColor=#99FFFF;fontStyle=1" vertex="1" parent="4BLV-VYYYMDppgR64cWv-5">
          <mxGeometry x="90" y="18" width="24" height="24" as="geometry" />
        </mxCell>
        <mxCell id="4BLV-VYYYMDppgR64cWv-4" value="" style="shape=image;html=1;verticalAlign=top;verticalLabelPosition=bottom;labelBackgroundColor=#ffffff;imageAspect=0;aspect=fixed;image=https://cdn3.iconfinder.com/data/icons/freeapplication/png/24x24/Database.png;fillColor=#99FFFF;fontStyle=1" vertex="1" parent="4BLV-VYYYMDppgR64cWv-5">
          <mxGeometry x="60" y="18" width="24" height="24" as="geometry" />
        </mxCell>
        <mxCell id="4BLV-VYYYMDppgR64cWv-75" value="" style="group" vertex="1" connectable="0" parent="1">
          <mxGeometry x="-90" y="-170" width="230" height="170" as="geometry" />
        </mxCell>
        <mxCell id="dt_SSPU3Z-cIWrvToQTy-2" value="&lt;font style=&quot;font-size: 14px&quot;&gt;SOCIAL GRAPH SERVICE&lt;/font&gt;" style="rounded=1;whiteSpace=wrap;html=1;fillColor=#99FFFF;fontStyle=1" parent="4BLV-VYYYMDppgR64cWv-75" vertex="1">
          <mxGeometry width="230" height="170" as="geometry" />
        </mxCell>
        <mxCell id="4BLV-VYYYMDppgR64cWv-24" value="" style="group;fontStyle=1" vertex="1" connectable="0" parent="4BLV-VYYYMDppgR64cWv-75">
          <mxGeometry x="90" y="100" width="120" height="60" as="geometry" />
        </mxCell>
        <mxCell id="4BLV-VYYYMDppgR64cWv-25" value="" style="rounded=1;whiteSpace=wrap;html=1;fillColor=#99FFFF;fontStyle=1" vertex="1" parent="4BLV-VYYYMDppgR64cWv-24">
          <mxGeometry width="120" height="60" as="geometry" />
        </mxCell>
        <mxCell id="4BLV-VYYYMDppgR64cWv-26" value="" style="outlineConnect=0;dashed=0;verticalLabelPosition=bottom;verticalAlign=top;align=center;html=1;shape=mxgraph.aws3.mysql_db_instance;fillColor=#2E73B8;gradientColor=none;fontStyle=1" vertex="1" parent="4BLV-VYYYMDppgR64cWv-24">
          <mxGeometry x="10" y="7.75" width="40" height="44.5" as="geometry" />
        </mxCell>
        <mxCell id="4BLV-VYYYMDppgR64cWv-27" value="" style="shape=image;html=1;verticalAlign=top;verticalLabelPosition=bottom;labelBackgroundColor=#ffffff;imageAspect=0;aspect=fixed;image=https://cdn3.iconfinder.com/data/icons/freeapplication/png/24x24/Database.png;fillColor=#99FFFF;fontStyle=1" vertex="1" parent="4BLV-VYYYMDppgR64cWv-24">
          <mxGeometry x="90" y="18" width="24" height="24" as="geometry" />
        </mxCell>
        <mxCell id="4BLV-VYYYMDppgR64cWv-28" value="" style="shape=image;html=1;verticalAlign=top;verticalLabelPosition=bottom;labelBackgroundColor=#ffffff;imageAspect=0;aspect=fixed;image=https://cdn3.iconfinder.com/data/icons/freeapplication/png/24x24/Database.png;fillColor=#99FFFF;fontStyle=1" vertex="1" parent="4BLV-VYYYMDppgR64cWv-24">
          <mxGeometry x="60" y="18" width="24" height="24" as="geometry" />
        </mxCell>
        <mxCell id="4BLV-VYYYMDppgR64cWv-31" value="" style="aspect=fixed;html=1;points=[];align=center;image;fontSize=12;image=img/lib/mscae/Cache_Redis_Product.svg;fillColor=#99FFFF;fontStyle=1" vertex="1" parent="4BLV-VYYYMDppgR64cWv-75">
          <mxGeometry x="10" y="14.5" width="50" height="42" as="geometry" />
        </mxCell>
        <mxCell id="4BLV-VYYYMDppgR64cWv-80" style="edgeStyle=orthogonalEdgeStyle;rounded=0;orthogonalLoop=1;jettySize=auto;html=1;shadow=0;entryX=0.5;entryY=0;entryDx=0;entryDy=0;" edge="1" parent="1" source="dt_SSPU3Z-cIWrvToQTy-3" target="4BLV-VYYYMDppgR64cWv-22">
          <mxGeometry relative="1" as="geometry">
            <mxPoint x="940" y="60" as="targetPoint" />
            <Array as="points">
              <mxPoint x="60" y="20" />
              <mxPoint x="980" y="20" />
            </Array>
          </mxGeometry>
        </mxCell>
        <mxCell id="4BLV-VYYYMDppgR64cWv-84" value="" style="group" vertex="1" connectable="0" parent="1">
          <mxGeometry x="-50" y="60" width="220" height="200" as="geometry" />
        </mxCell>
        <mxCell id="dt_SSPU3Z-cIWrvToQTy-3" value="INGESTION SERVICE" style="rounded=1;whiteSpace=wrap;html=1;fillColor=#99FFFF;fontStyle=1" parent="4BLV-VYYYMDppgR64cWv-84" vertex="1">
          <mxGeometry width="220" height="140" as="geometry" />
        </mxCell>
        <mxCell id="dt_SSPU3Z-cIWrvToQTy-5" value="ASSET SERVICE" style="rounded=1;whiteSpace=wrap;html=1;fillColor=#FFB366;fontStyle=1" parent="4BLV-VYYYMDppgR64cWv-84" vertex="1">
          <mxGeometry x="20" y="160" width="70" height="40" as="geometry" />
        </mxCell>
        <mxCell id="dt_SSPU3Z-cIWrvToQTy-6" value="TINY URL SERVICE" style="rounded=1;whiteSpace=wrap;html=1;fillColor=#FFB366;fontStyle=1" parent="4BLV-VYYYMDppgR64cWv-84" vertex="1">
          <mxGeometry x="110" y="160" width="80" height="40" as="geometry" />
        </mxCell>
        <mxCell id="4BLV-VYYYMDppgR64cWv-88" style="edgeStyle=orthogonalEdgeStyle;rounded=0;orthogonalLoop=1;jettySize=auto;html=1;entryX=0;entryY=0.75;entryDx=0;entryDy=0;shadow=0;exitX=0;exitY=0;exitDx=0;exitDy=0;" edge="1" parent="1" source="4BLV-VYYYMDppgR64cWv-13" target="dt_SSPU3Z-cIWrvToQTy-2">
          <mxGeometry relative="1" as="geometry">
            <mxPoint x="-20" y="495" as="sourcePoint" />
            <mxPoint x="-70" y="30" as="targetPoint" />
            <Array as="points">
              <mxPoint x="-10" y="495" />
              <mxPoint x="-150" y="495" />
              <mxPoint x="-150" y="-42" />
            </Array>
          </mxGeometry>
        </mxCell>
        <UserObject label="" id="4BLV-VYYYMDppgR64cWv-90">
          <mxCell style="edgeStyle=orthogonalEdgeStyle;rounded=0;orthogonalLoop=1;jettySize=auto;html=1;exitX=0;exitY=0.5;exitDx=0;exitDy=0;entryX=1;entryY=0.5;entryDx=0;entryDy=0;shadow=0;" edge="1" parent="1" source="4BLV-VYYYMDppgR64cWv-89" target="4BLV-VYYYMDppgR64cWv-22">
            <mxGeometry relative="1" as="geometry" />
          </mxCell>
        </UserObject>
        <mxCell id="4BLV-VYYYMDppgR64cWv-89" value="LIVE USER SERVICE" style="rounded=1;whiteSpace=wrap;html=1;fillColor=#99FFFF;fontStyle=1" vertex="1" parent="1">
          <mxGeometry x="1080" y="290" width="120" height="50" as="geometry" />
        </mxCell>
        <mxCell id="4BLV-VYYYMDppgR64cWv-99" style="edgeStyle=orthogonalEdgeStyle;rounded=0;orthogonalLoop=1;jettySize=auto;html=1;exitX=0.5;exitY=0;exitDx=0;exitDy=0;entryX=0.5;entryY=1;entryDx=0;entryDy=0;shadow=0;" edge="1" parent="1" source="4BLV-VYYYMDppgR64cWv-94" target="4BLV-VYYYMDppgR64cWv-96">
          <mxGeometry relative="1" as="geometry" />
        </mxCell>
        <mxCell id="4BLV-VYYYMDppgR64cWv-94" value="SEARCH SERVICE" style="rounded=1;whiteSpace=wrap;html=1;fillColor=#99FFFF;fontStyle=1" vertex="1" parent="1">
          <mxGeometry x="1270" y="380" width="120" height="50" as="geometry" />
        </mxCell>
        <mxCell id="4BLV-VYYYMDppgR64cWv-98" style="edgeStyle=orthogonalEdgeStyle;rounded=0;orthogonalLoop=1;jettySize=auto;html=1;entryX=1;entryY=0.25;entryDx=0;entryDy=0;shadow=0;" edge="1" parent="1" source="4BLV-VYYYMDppgR64cWv-95" target="4BLV-VYYYMDppgR64cWv-22">
          <mxGeometry relative="1" as="geometry" />
        </mxCell>
        <mxCell id="4BLV-VYYYMDppgR64cWv-95" value="Search Consumer" style="rounded=1;whiteSpace=wrap;html=1;fillColor=#99FFFF;fontStyle=1" vertex="1" parent="1">
          <mxGeometry x="1270" y="-55" width="120" height="50" as="geometry" />
        </mxCell>
        <mxCell id="4BLV-VYYYMDppgR64cWv-96" value="&lt;span style=&quot;font-size: 18px&quot;&gt;ELASTIC SEARCH SERVER&lt;/span&gt;" style="rounded=0;whiteSpace=wrap;html=1;shadow=1;fillColor=#FF9933;fontStyle=1" vertex="1" parent="1">
          <mxGeometry x="1200" y="130" width="260" height="80" as="geometry" />
        </mxCell>
        <mxCell id="4BLV-VYYYMDppgR64cWv-97" value="" style="endArrow=block;startArrow=block;endFill=1;startFill=1;html=1;shadow=0;entryX=0.5;entryY=0;entryDx=0;entryDy=0;exitX=0.5;exitY=1;exitDx=0;exitDy=0;" edge="1" parent="1" source="4BLV-VYYYMDppgR64cWv-95" target="4BLV-VYYYMDppgR64cWv-96">
          <mxGeometry width="160" relative="1" as="geometry">
            <mxPoint x="570" y="150" as="sourcePoint" />
            <mxPoint x="730" y="150" as="targetPoint" />
          </mxGeometry>
        </mxCell>
      </root>
    </mxGraphModel>
  </diagram>
  <diagram id="H4yS4IhpxFI5iwFeFllW" name="Page-2">
    <mxGraphModel dx="1144" dy="622" grid="1" gridSize="10" guides="1" tooltips="1" connect="1" arrows="1" fold="1" page="1" pageScale="1" pageWidth="850" pageHeight="1100" math="0" shadow="0">
      <root>
        <mxCell id="c0xe4oNQUBc__KVAfZnV-0" />
        <mxCell id="c0xe4oNQUBc__KVAfZnV-1" parent="c0xe4oNQUBc__KVAfZnV-0" />
      </root>
    </mxGraphModel>
  </diagram>
</mxfile>
